<?xml version="1.0" encoding="UTF-8"?>
<svg width="159px" height="204px" viewBox="0 0 159 204" version="1.1" xmlns="http://www.w3.org/2000/svg" xmlns:xlink="http://www.w3.org/1999/xlink">
    <!-- Generator: Sketch 43.2 (39069) - http://www.bohemiancoding.com/sketch -->
    <title>book</title>
    <desc>Created with Sketch.</desc>
    <defs>
        <rect id="path-1" x="0" y="0" width="22" height="194" rx="11"></rect>
    </defs>
    <g id="Page-1" stroke="none" stroke-width="1" fill="none" fill-rule="evenodd">
        <g id="Desktop-HD" transform="translate(-641.000000, -537.000000)">
            <g id="book" transform="translate(641.000000, 537.000000)">
                <rect id="Rectangle-5" fill="#DFDFDF" x="10" y="10" width="149" height="194" rx="15"></rect>
                <rect id="Rectangle-5" fill="#EFEFEF" x="5" y="5" width="149" height="194" rx="15"></rect>
                <rect id="Rectangle-5" fill="#FFFFFF" x="0" y="0" width="149" height="194" rx="15"></rect>
                <g id="Rectangle-5">
                    <use fill="#F5CD79" fill-rule="evenodd" xlink:href="#path-1"></use>
                    <rect stroke="#FFFFFF" stroke-width="5" x="2.5" y="2.5" width="17" height="189" rx="8.5"></rect>
                </g>
                <path d="M53.0097656,48 L50.5634766,48 L50.5634766,25.2070312 L53.0097656,25.2070312 L53.0097656,48 Z M64.3183594,31.6523438 C65.6855537,31.6523438 66.857417,31.9550751 67.8339844,32.5605469 C68.8105518,33.1660187 69.5576146,34.0131781 70.0751953,35.1020508 C70.592776,36.1909234 70.8515625,37.4628833 70.8515625,38.9179688 L70.8515625,40.4267578 L59.7626953,40.4267578 C59.7919923,42.3115329 60.2607376,43.7470654 61.1689453,44.7333984 C62.077153,45.7197315 63.3564371,46.2128906 65.0068359,46.2128906 C66.022466,46.2128906 66.9208945,46.1201181 67.7021484,45.9345703 C68.4834023,45.7490225 69.2939411,45.4755877 70.1337891,45.1142578 L70.1337891,47.2529297 C69.3232381,47.6142596 68.5200235,47.8779289 67.7241211,48.0439453 C66.9282187,48.2099618 65.9882867,48.2929688 64.9042969,48.2929688 C63.3613204,48.2929688 62.016119,47.9780305 60.8686523,47.3481445 C59.7211857,46.7182586 58.8300813,45.7929749 58.1953125,44.5722656 C57.5605437,43.3515564 57.2431641,41.8574307 57.2431641,40.0898438 C57.2431641,38.3613195 57.5336885,36.8647524 58.1147461,35.6000977 C58.6958037,34.3354429 59.516108,33.3613315 60.5756836,32.6777344 C61.6352592,31.9941372 62.8828053,31.6523438 64.3183594,31.6523438 Z M64.2890625,33.6445312 C62.9902279,33.6445312 61.955082,34.0693317 61.1835938,34.9189453 C60.4121055,35.7685589 59.9531257,36.9550705 59.8066406,38.4785156 L68.3027344,38.4785156 C68.2929687,37.5214796 68.1440444,36.6792029 67.855957,35.9516602 C67.5678697,35.2241175 67.1308623,34.6577169 66.5449219,34.2524414 C65.9589814,33.8471659 65.2070358,33.6445312 64.2890625,33.6445312 Z M80.9882812,31.6816406 C82.9023533,31.6816406 84.3232375,32.1113238 85.2509766,32.9707031 C86.1787156,33.8300824 86.6425781,35.202139 86.6425781,37.0869141 L86.6425781,48 L84.8701172,48 L84.4013672,45.6269531 L84.2841797,45.6269531 C83.8349587,46.2128936 83.3662134,46.7036113 82.8779297,47.0991211 C82.389646,47.4946309 81.8256868,47.7924795 81.1860352,47.9926758 C80.5463835,48.1928721 79.7627,48.2929688 78.8349609,48.2929688 C77.8583936,48.2929688 76.991703,48.122072 76.2348633,47.7802734 C75.4780236,47.4384749 74.8823264,46.9209019 74.4477539,46.2275391 C74.0131814,45.5341762 73.7958984,44.6552788 73.7958984,43.5908203 C73.7958984,41.9892498 74.4306577,40.7587934 75.7001953,39.8994141 C76.9697329,39.0400348 78.9033073,38.5712895 81.5009766,38.4931641 L84.2695312,38.3759766 L84.2695312,37.3945312 C84.2695312,36.0078056 83.9716827,35.0361356 83.3759766,34.4794922 C82.7802705,33.9228488 81.9404351,33.6445312 80.8564453,33.6445312 C80.0165974,33.6445312 79.2158241,33.7666003 78.4541016,34.0107422 C77.692379,34.254884 76.96973,34.5429671 76.2861328,34.875 L75.5390625,33.0292969 C76.2617224,32.6582013 77.0917922,32.3408216 78.0292969,32.0771484 C78.9668016,31.8134752 79.9531198,31.6816406 80.9882812,31.6816406 Z M84.2402344,40.0898438 L81.7939453,40.1923828 C79.7919822,40.2705082 78.3808635,40.5976534 77.5605469,41.1738281 C76.7402303,41.7500029 76.3300781,42.5654244 76.3300781,43.6201172 C76.3300781,44.5380905 76.6083957,45.2167947 77.1650391,45.65625 C77.7216825,46.0957053 78.4589798,46.3154297 79.3769531,46.3154297 C80.8027415,46.3154297 81.969722,45.9199258 82.8779297,45.1289062 C83.7861374,44.3378867 84.2402344,43.1513751 84.2402344,41.5693359 L84.2402344,40.0898438 Z M98.9472656,31.6523438 C99.2695329,31.6523438 99.6064436,31.6694334 99.9580078,31.7036133 C100.309572,31.7377931 100.622069,31.7841794 100.895508,31.8427734 L100.587891,34.0986328 C100.324217,34.0302731 100.031252,33.9765627 99.7089844,33.9375 C99.3867171,33.8984373 99.0839858,33.8789062 98.8007812,33.8789062 C98.1562468,33.8789062 97.5483427,34.0082995 96.9770508,34.2670898 C96.4057589,34.5258802 95.9052756,34.8969702 95.4755859,35.3803711 C95.0458963,35.8637719 94.7089856,36.4448208 94.4648438,37.1235352 C94.2207019,37.8022495 94.0986328,38.5566365 94.0986328,39.3867188 L94.0986328,48 L91.6523438,48 L91.6523438,31.9453125 L93.6738281,31.9453125 L93.9375,34.9042969 L94.0400391,34.9042969 C94.372072,34.3085908 94.7724586,33.7641626 95.2412109,33.2709961 C95.7099633,32.7778296 96.2543914,32.3847671 96.8745117,32.0917969 C97.494632,31.7988267 98.1855431,31.6523438 98.9472656,31.6523438 Z M111.515625,31.6523438 C113.419931,31.6523438 114.860347,32.1186477 115.836914,33.0512695 C116.813481,33.9838914 117.301758,35.4804584 117.301758,37.5410156 L117.301758,48 L114.899414,48 L114.899414,37.7021484 C114.899414,36.3642511 114.594241,35.3632846 113.983887,34.6992188 C113.373532,34.0351529 112.438483,33.703125 111.178711,33.703125 C109.401358,33.703125 108.151371,34.2060497 107.428711,35.2119141 C106.706051,36.2177785 106.344727,37.6777248 106.344727,39.5917969 L106.344727,48 L103.913086,48 L103.913086,31.9453125 L105.875977,31.9453125 L106.242188,34.2597656 L106.374023,34.2597656 C106.715822,33.6933565 107.150388,33.2172871 107.677734,32.831543 C108.205081,32.4457989 108.795895,32.152833 109.450195,31.9526367 C110.104495,31.7524404 110.792965,31.6523438 111.515625,31.6523438 Z" id="learn" fill="#F5CD79"></path>
                <polyline id="Path-2" stroke="#F5CD79" stroke-width="3" points="36 67 36 72 46 72 46 62 31 62 31 77 136 77 136 92 121 92 121 82 131 82 131 87"></polyline>
            </g>
        </g>
    </g>
</svg>