<?xml version="1.0" encoding="UTF-8"?>
<svg width="174px" height="216px" viewBox="0 0 174 216" version="1.1" xmlns="http://www.w3.org/2000/svg" xmlns:xlink="http://www.w3.org/1999/xlink">
    <!-- Generator: Sketch 43.2 (39069) - http://www.bohemiancoding.com/sketch -->
    <title>contact</title>
    <desc>Created with Sketch.</desc>
    <defs></defs>
    <g id="Page-1" stroke="none" stroke-width="1" fill="none" fill-rule="evenodd">
        <g id="Desktop-HD" transform="translate(-1094.000000, -531.000000)">
            <g id="contact" transform="translate(1094.000000, 531.000000)">
                <path d="M10.1675978,15.0015884 C10.1675978,6.7164399 16.8745568,0 25.1719812,0 L124.995617,0 C133.282309,0 140,6.71762212 140,15.0015884 L140,65.8248005 C140,74.109949 133.293041,80.8263889 124.995617,80.8263889 L10.1675978,80.8263889 L10.1675978,15.0015884 Z M10.1675978,80.8263889 L30.5184295,80.8263889 L0,113 L10.1675978,80.8263889 Z" id="Combined-Shape" fill="#FFFFFF"></path>
                <path d="M44.1675978,118.001588 C44.1675978,109.71644 50.8745568,103 59.1719812,103 L158.995617,103 C167.282309,103 174,109.717622 174,118.001588 L174,168.8248 C174,177.109949 167.293041,183.826389 158.995617,183.826389 L44.1675978,183.826389 L44.1675978,118.001588 Z M44.1675978,183.826389 L64.5184295,183.826389 L34,216 L44.1675978,183.826389 Z" id="Combined-Shape" fill="#FFFFFF" transform="translate(104.000000, 159.500000) scale(-1, 1) translate(-104.000000, -159.500000) "></path>
                <path d="M30.9941406,50.2929688 C29.5488209,50.2929688 28.2744196,49.9951202 27.1708984,49.3994141 C26.0673773,48.803708 25.2080109,47.8955139 24.5927734,46.6748047 C23.977536,45.4540955 23.6699219,43.9160249 23.6699219,42.0605469 C23.6699219,40.1171778 23.9946257,38.5278382 24.644043,37.2924805 C25.2934603,36.0571227 26.1894474,35.1416045 27.3320312,34.5458984 C28.4746151,33.9501923 29.7734302,33.6523438 31.2285156,33.6523438 C32.0293009,33.6523438 32.8032189,33.7329094 33.550293,33.894043 C34.297367,34.0551766 34.9101539,34.2578113 35.3886719,34.5019531 L34.65625,36.5380859 C34.1679663,36.3427725 33.6040071,36.166993 32.9643555,36.0107422 C32.3247038,35.8544914 31.7265653,35.7763672 31.1699219,35.7763672 C30.0566351,35.7763672 29.1313513,36.0156226 28.394043,36.4941406 C27.6567346,36.9726586 27.1049823,37.6757766 26.7387695,38.6035156 C26.3725568,39.5312546 26.1894531,40.6738213 26.1894531,42.03125 C26.1894531,43.3300846 26.367674,44.438472 26.7241211,45.3564453 C27.0805682,46.2744187 27.6127894,46.9750952 28.3208008,47.4584961 C29.0288121,47.9418969 29.9150337,48.1835938 30.9794922,48.1835938 C31.8291058,48.1835938 32.5956997,48.0932626 33.2792969,47.9125977 C33.962894,47.7319327 34.583005,47.5195325 35.1396484,47.2753906 L35.1396484,49.4433594 C34.6025364,49.7167982 34.0043978,49.9267571 33.3452148,50.0732422 C32.6860319,50.2197273 31.9023483,50.2929688 30.9941406,50.2929688 Z M52.7763672,41.9433594 C52.7763672,43.2617253 52.6054705,44.4384714 52.2636719,45.4736328 C51.9218733,46.5087942 51.4287142,47.3828089 50.7841797,48.0957031 C50.1396452,48.8085973 49.3608444,49.3530255 48.4477539,49.7290039 C47.5346634,50.1049823 46.5019589,50.2929688 45.3496094,50.2929688 C44.2753853,50.2929688 43.2915084,50.1049823 42.3979492,49.7290039 C41.5043901,49.3530255 40.7329134,48.8085973 40.0834961,48.0957031 C39.4340788,47.3828089 38.9311541,46.5087942 38.574707,45.4736328 C38.2182599,44.4384714 38.0400391,43.2617253 38.0400391,41.9433594 C38.0400391,40.1855381 38.3378876,38.688971 38.9335938,37.4536133 C39.5292999,36.2182555 40.3813421,35.2758822 41.4897461,34.6264648 C42.5981501,33.9770475 43.9189376,33.6523438 45.4521484,33.6523438 C46.9169995,33.6523438 48.198725,33.9794889 49.2973633,34.6337891 C50.3960016,35.2880892 51.2504852,36.232904 51.8608398,37.4682617 C52.4711945,38.7036195 52.7763672,40.1953038 52.7763672,41.9433594 Z M40.5595703,41.9433594 C40.5595703,43.2324283 40.730467,44.3505812 41.0722656,45.2978516 C41.4140642,46.2451219 41.9414027,46.9775365 42.6542969,47.4951172 C43.3671911,48.0126979 44.2851506,48.2714844 45.4082031,48.2714844 C46.5214899,48.2714844 47.4370081,48.0126979 48.1547852,47.4951172 C48.8725622,46.9775365 49.402342,46.2451219 49.7441406,45.2978516 C50.0859392,44.3505812 50.2568359,43.2324283 50.2568359,41.9433594 C50.2568359,40.6640561 50.0859392,39.5581101 49.7441406,38.6254883 C49.402342,37.6928664 48.8750036,36.9726588 48.1621094,36.4648438 C47.4492152,35.9570287 46.5263729,35.703125 45.3935547,35.703125 C43.7236245,35.703125 42.5004922,36.2548773 41.7241211,37.3583984 C40.94775,38.4619196 40.5595703,39.9902246 40.5595703,41.9433594 Z M64.5830078,33.6523438 C66.4873142,33.6523438 67.9277295,34.1186477 68.9042969,35.0512695 C69.8808643,35.9838914 70.3691406,37.4804584 70.3691406,39.5410156 L70.3691406,50 L67.9667969,50 L67.9667969,39.7021484 C67.9667969,38.3642511 67.6616241,37.3632846 67.0512695,36.6992188 C66.4409149,36.0351529 65.5058657,35.703125 64.2460938,35.703125 C62.4687411,35.703125 61.2187536,36.2060497 60.4960938,37.2119141 C59.7734339,38.2177785 59.4121094,39.6777248 59.4121094,41.5917969 L59.4121094,50 L56.9804688,50 L56.9804688,33.9453125 L58.9433594,33.9453125 L59.3095703,36.2597656 L59.4414062,36.2597656 C59.7832048,35.6933565 60.2177708,35.2172871 60.7451172,34.831543 C61.2724636,34.4457989 61.863278,34.152833 62.5175781,33.9526367 C63.1718783,33.7524404 63.8603479,33.6523438 64.5830078,33.6523438 Z M80.5644531,48.3007812 C80.9648458,48.3007812 81.3749979,48.2666019 81.7949219,48.1982422 C82.2148458,48.1298825 82.5566393,48.0468755 82.8203125,47.9492188 L82.8203125,49.8388672 C82.537108,49.9658209 82.1440455,50.0732417 81.6411133,50.1611328 C81.1381811,50.2490239 80.6474633,50.2929688 80.1689453,50.2929688 C79.3193317,50.2929688 78.547855,50.1440445 77.8544922,49.8461914 C77.1611293,49.5483384 76.6069357,49.0429723 76.1918945,48.3300781 C75.7768534,47.6171839 75.5693359,46.6308657 75.5693359,45.3710938 L75.5693359,35.8496094 L73.2841797,35.8496094 L73.2841797,34.6630859 L75.5839844,33.7109375 L76.5507812,30.2246094 L78.015625,30.2246094 L78.015625,33.9453125 L82.7177734,33.9453125 L82.7177734,35.8496094 L78.015625,35.8496094 L78.015625,45.2978516 C78.015625,46.303716 78.2475563,47.0556616 78.7114258,47.5537109 C79.1752953,48.0517603 79.7929649,48.3007812 80.5644531,48.3007812 Z M92.078125,33.6816406 C93.9921971,33.6816406 95.4130813,34.1113238 96.3408203,34.9707031 C97.2685593,35.8300824 97.7324219,37.202139 97.7324219,39.0869141 L97.7324219,50 L95.9599609,50 L95.4912109,47.6269531 L95.3740234,47.6269531 C94.9248024,48.2128936 94.4560571,48.7036113 93.9677734,49.0991211 C93.4794897,49.4946309 92.9155305,49.7924795 92.2758789,49.9926758 C91.6362273,50.1928721 90.8525437,50.2929688 89.9248047,50.2929688 C88.9482373,50.2929688 88.0815468,50.122072 87.324707,49.7802734 C86.5678673,49.4384749 85.9721701,48.9209019 85.5375977,48.2275391 C85.1030252,47.5341762 84.8857422,46.6552788 84.8857422,45.5908203 C84.8857422,43.9892498 85.5205015,42.7587934 86.7900391,41.8994141 C88.0595767,41.0400348 89.9931511,40.5712895 92.5908203,40.4931641 L95.359375,40.3759766 L95.359375,39.3945312 C95.359375,38.0078056 95.0615264,37.0361356 94.4658203,36.4794922 C93.8701142,35.9228488 93.0302789,35.6445312 91.9462891,35.6445312 C91.1064411,35.6445312 90.3056679,35.7666003 89.5439453,36.0107422 C88.7822228,36.254884 88.0595737,36.5429671 87.3759766,36.875 L86.6289062,35.0292969 C87.3515661,34.6582013 88.1816359,34.3408216 89.1191406,34.0771484 C90.0566453,33.8134752 91.0429636,33.6816406 92.078125,33.6816406 Z M95.3300781,42.0898438 L92.8837891,42.1923828 C90.8818259,42.2705082 89.4707072,42.5976534 88.6503906,43.1738281 C87.830074,43.7500029 87.4199219,44.5654244 87.4199219,45.6201172 C87.4199219,46.5380905 87.6982394,47.2167947 88.2548828,47.65625 C88.8115262,48.0957053 89.5488235,48.3154297 90.4667969,48.3154297 C91.8925853,48.3154297 93.0595658,47.9199258 93.9677734,47.1289062 C94.8759811,46.3378867 95.3300781,45.1513751 95.3300781,43.5693359 L95.3300781,42.0898438 Z M109.172852,50.2929688 C107.727532,50.2929688 106.453131,49.9951202 105.349609,49.3994141 C104.246088,48.803708 103.386722,47.8955139 102.771484,46.6748047 C102.156247,45.4540955 101.848633,43.9160249 101.848633,42.0605469 C101.848633,40.1171778 102.173337,38.5278382 102.822754,37.2924805 C103.472171,36.0571227 104.368158,35.1416045 105.510742,34.5458984 C106.653326,33.9501923 107.952141,33.6523438 109.407227,33.6523438 C110.208012,33.6523438 110.98193,33.7329094 111.729004,33.894043 C112.476078,34.0551766 113.088865,34.2578113 113.567383,34.5019531 L112.834961,36.5380859 C112.346677,36.3427725 111.782718,36.166993 111.143066,36.0107422 C110.503415,35.8544914 109.905276,35.7763672 109.348633,35.7763672 C108.235346,35.7763672 107.310062,36.0156226 106.572754,36.4941406 C105.835446,36.9726586 105.283693,37.6757766 104.91748,38.6035156 C104.551268,39.5312546 104.368164,40.6738213 104.368164,42.03125 C104.368164,43.3300846 104.546385,44.438472 104.902832,45.3564453 C105.259279,46.2744187 105.7915,46.9750952 106.499512,47.4584961 C107.207523,47.9418969 108.093745,48.1835938 109.158203,48.1835938 C110.007817,48.1835938 110.774411,48.0932626 111.458008,47.9125977 C112.141605,47.7319327 112.761716,47.5195325 113.318359,47.2753906 L113.318359,49.4433594 C112.781247,49.7167982 112.183109,49.9267571 111.523926,50.0732422 C110.864743,50.2197273 110.081059,50.2929688 109.172852,50.2929688 Z M122.297852,48.3007812 C122.698244,48.3007812 123.108396,48.2666019 123.52832,48.1982422 C123.948244,48.1298825 124.290038,48.0468755 124.553711,47.9492188 L124.553711,49.8388672 C124.270506,49.9658209 123.877444,50.0732417 123.374512,50.1611328 C122.87158,50.2490239 122.380862,50.2929688 121.902344,50.2929688 C121.05273,50.2929688 120.281253,50.1440445 119.587891,49.8461914 C118.894528,49.5483384 118.340334,49.0429723 117.925293,48.3300781 C117.510252,47.6171839 117.302734,46.6308657 117.302734,45.3710938 L117.302734,35.8496094 L115.017578,35.8496094 L115.017578,34.6630859 L117.317383,33.7109375 L118.28418,30.2246094 L119.749023,30.2246094 L119.749023,33.9453125 L124.451172,33.9453125 L124.451172,35.8496094 L119.749023,35.8496094 L119.749023,45.2978516 C119.749023,46.303716 119.980955,47.0556616 120.444824,47.5537109 C120.908694,48.0517603 121.526363,48.3007812 122.297852,48.3007812 Z" fill="#F5CD79"></path>
                <path d="M82.1972656,151.476562 C82.1972656,150.792965 82.3632796,150.30713 82.6953125,150.019043 C83.0273454,149.730956 83.4326148,149.586914 83.9111328,149.586914 C84.4091822,149.586914 84.8290999,149.730956 85.1708984,150.019043 C85.512697,150.30713 85.6835938,150.792965 85.6835938,151.476562 C85.6835938,152.150394 85.512697,152.641112 85.1708984,152.94873 C84.8290999,153.256349 84.4091822,153.410156 83.9111328,153.410156 C83.4326148,153.410156 83.0273454,153.256349 82.6953125,152.94873 C82.3632796,152.641112 82.1972656,152.150394 82.1972656,151.476562 Z M90.078125,151.476562 C90.078125,150.792965 90.244139,150.30713 90.5761719,150.019043 C90.9082048,149.730956 91.3134742,149.586914 91.7919922,149.586914 C92.2900416,149.586914 92.7099592,149.730956 93.0517578,150.019043 C93.3935564,150.30713 93.5644531,150.792965 93.5644531,151.476562 C93.5644531,152.150394 93.3935564,152.641112 93.0517578,152.94873 C92.7099592,153.256349 92.2900416,153.410156 91.7919922,153.410156 C91.3134742,153.410156 90.9082048,153.256349 90.5761719,152.94873 C90.244139,152.641112 90.078125,152.150394 90.078125,151.476562 Z M97.9589844,151.476562 C97.9589844,150.792965 98.1249983,150.30713 98.4570312,150.019043 C98.7890642,149.730956 99.1943335,149.586914 99.6728516,149.586914 C100.170901,149.586914 100.590819,149.730956 100.932617,150.019043 C101.274416,150.30713 101.445312,150.792965 101.445312,151.476562 C101.445312,152.150394 101.274416,152.641112 100.932617,152.94873 C100.590819,153.256349 100.170901,153.410156 99.6728516,153.410156 C99.1943335,153.410156 98.7890642,153.256349 98.4570312,152.94873 C98.1249983,152.641112 97.9589844,152.150394 97.9589844,151.476562 Z" id="..." fill="#F5CD79"></path>
            </g>
        </g>
    </g>
</svg>