<?xml version="1.0" encoding="UTF-8"?>
<svg width="226px" height="194px" viewBox="0 0 226 194" version="1.1" xmlns="http://www.w3.org/2000/svg" xmlns:xlink="http://www.w3.org/1999/xlink">
    <!-- Generator: Sketch 43.2 (39069) - http://www.bohemiancoding.com/sketch -->
    <title>laptop</title>
    <desc>Created with Sketch.</desc>
    <defs></defs>
    <g id="Page-1" stroke="none" stroke-width="1" fill="none" fill-rule="evenodd">
        <g id="Desktop-HD" transform="translate(-138.000000, -541.000000)">
            <g id="laptop" transform="translate(137.000000, 541.000000)">
                <g id="machine" transform="translate(0.000000, 121.000000)">
                    <g id="keyboard">
                        <rect id="Rectangle-3" fill="#FFFFFF" x="48" y="15" width="147" height="4" rx="2"></rect>
                        <rect id="Rectangle-3-Copy" fill="#FFFFFF" x="38" y="27" width="147" height="4" rx="2"></rect>
                        <rect id="Rectangle-3-Copy-2" fill="#FFFFFF" x="28" y="39" width="147" height="4" rx="2"></rect>
                        <rect id="Rectangle-3-Copy-3" fill="#FFFFFF" x="127" y="51" width="40" height="4" rx="2"></rect>
                        <rect id="Rectangle-3-Copy-3" fill="#FFFFFF" x="18" y="51" width="40" height="4" rx="2"></rect>
                        <rect id="Rectangle-3-Copy-4" fill="#FFFFFF" x="70" y="51" width="40" height="4" rx="2"></rect>
                        <path d="M28.7862439,17.8118498 C34.306746,8.852909 47.4770546,1.5 58.0027467,1.5 L206.997253,1.5 C216.872457,1.5 220.411664,7.83255738 215.232199,16.2380468 L191.256711,55.1466417 C185.736209,64.1055826 172.5659,71.4584916 162.040208,71.4584916 L13.0457015,71.4584916 C3.17049813,71.4584916 -0.368709599,65.1259342 4.81075557,56.7204448 L28.7862439,17.8118498 Z" id="Rectangle-2" stroke="#FFFFFF" stroke-width="3"></path>
                    </g>
                </g>
                <rect id="screen" fill="#FFFFFF" x="45" y="6" width="176" height="112" rx="15"></rect>
                <path d="M94.6005859,68.4404297 L80.5087891,62.2001953 L80.5087891,60.8085938 L94.6005859,53.8359375 L94.6005859,56.0039062 L83.1455078,61.4091797 L94.6005859,66.2871094 L94.6005859,68.4404297 Z M111.783203,71.9707031 L108.926758,62.625 C108.799804,62.2246074 108.680176,61.8315449 108.567871,61.4458008 C108.455566,61.0600567 108.353028,60.6889666 108.260254,60.3325195 C108.16748,59.9760724 108.084473,59.6440445 108.01123,59.3364258 C107.937988,59.0288071 107.876953,58.7626964 107.828125,58.5380859 L107.725586,58.5380859 C107.686523,58.7626964 107.632813,59.0288071 107.564453,59.3364258 C107.496093,59.6440445 107.415528,59.9785138 107.322754,60.3398438 C107.22998,60.7011737 107.129883,61.0795879 107.022461,61.4750977 C106.915039,61.8706074 106.792969,62.2685527 106.65625,62.6689453 L103.667969,71.9707031 L100.928711,71.9707031 L96.5048828,55.9160156 L99.0244141,55.9160156 L101.338867,64.7783203 C101.495118,65.3642607 101.644042,65.9428682 101.785645,66.5141602 C101.927247,67.0854521 102.049316,67.6225561 102.151855,68.1254883 C102.254395,68.6284205 102.330078,69.0654278 102.378906,69.4365234 L102.496094,69.4365234 C102.554688,69.1923816 102.620605,68.8994158 102.693848,68.5576172 C102.76709,68.2158186 102.850097,67.8520527 102.942871,67.4663086 C103.035645,67.0805645 103.135742,66.6948261 103.243164,66.309082 C103.350586,65.9233379 103.458007,65.559572 103.56543,65.2177734 L106.524414,55.9160156 L109.146484,55.9160156 L112.00293,65.203125 C112.149415,65.6718773 112.293456,66.1601537 112.435059,66.6679688 C112.576661,67.1757838 112.706054,67.6665015 112.823242,68.1401367 C112.94043,68.6137719 113.023437,69.036131 113.072266,69.4072266 L113.189453,69.4072266 C113.228516,69.0751937 113.301757,68.6650415 113.40918,68.1767578 C113.516602,67.6884741 113.641113,67.1513701 113.782715,66.5654297 C113.924317,65.9794893 114.073241,65.3837921 114.229492,64.7783203 L116.573242,55.9160156 L119.048828,55.9160156 L114.610352,71.9707031 L111.783203,71.9707031 Z M135.806641,63.9433594 C135.806641,65.2617253 135.635744,66.4384714 135.293945,67.4736328 C134.952147,68.5087942 134.458988,69.3828089 133.814453,70.0957031 C133.169919,70.8085973 132.391118,71.3530255 131.478027,71.7290039 C130.564937,72.1049823 129.532232,72.2929688 128.379883,72.2929688 C127.305659,72.2929688 126.321782,72.1049823 125.428223,71.7290039 C124.534664,71.3530255 123.763187,70.8085973 123.11377,70.0957031 C122.464352,69.3828089 121.961428,68.5087942 121.60498,67.4736328 C121.248533,66.4384714 121.070312,65.2617253 121.070312,63.9433594 C121.070312,62.1855381 121.368161,60.688971 121.963867,59.4536133 C122.559573,58.2182555 123.411616,57.2758822 124.52002,56.6264648 C125.628424,55.9770475 126.949211,55.6523438 128.482422,55.6523438 C129.947273,55.6523438 131.228998,55.9794889 132.327637,56.6337891 C133.426275,57.2880892 134.280759,58.232904 134.891113,59.4682617 C135.501468,60.7036195 135.806641,62.1953038 135.806641,63.9433594 Z M123.589844,63.9433594 C123.589844,65.2324283 123.76074,66.3505812 124.102539,67.2978516 C124.444338,68.2451219 124.971676,68.9775365 125.68457,69.4951172 C126.397465,70.0126979 127.315424,70.2714844 128.438477,70.2714844 C129.551763,70.2714844 130.467282,70.0126979 131.185059,69.4951172 C131.902836,68.9775365 132.432615,68.2451219 132.774414,67.2978516 C133.116213,66.3505812 133.287109,65.2324283 133.287109,63.9433594 C133.287109,62.6640561 133.116213,61.5581101 132.774414,60.6254883 C132.432615,59.6928664 131.905277,58.9726588 131.192383,58.4648438 C130.479489,57.9570287 129.556646,57.703125 128.423828,57.703125 C126.753898,57.703125 125.530766,58.2548773 124.754395,59.3583984 C123.978023,60.4619196 123.589844,61.9902246 123.589844,63.9433594 Z M147.305664,55.6523438 C147.627931,55.6523438 147.964842,55.6694334 148.316406,55.7036133 C148.667971,55.7377931 148.980467,55.7841794 149.253906,55.8427734 L148.946289,58.0986328 C148.682616,58.0302731 148.38965,57.9765627 148.067383,57.9375 C147.745116,57.8984373 147.442384,57.8789062 147.15918,57.8789062 C146.514645,57.8789062 145.906741,58.0082995 145.335449,58.2670898 C144.764157,58.5258802 144.263674,58.8969702 143.833984,59.3803711 C143.404295,59.8637719 143.067384,60.4448208 142.823242,61.1235352 C142.5791,61.8022495 142.457031,62.5566365 142.457031,63.3867188 L142.457031,72 L140.010742,72 L140.010742,55.9453125 L142.032227,55.9453125 L142.295898,58.9042969 L142.398438,58.9042969 C142.73047,58.3085908 143.130857,57.7641626 143.599609,57.2709961 C144.068362,56.7778296 144.61279,56.3847671 145.23291,56.0917969 C145.85303,55.7988267 146.543942,55.6523438 147.305664,55.6523438 Z M154.688477,49.2070312 L154.688477,61.0429688 C154.688477,61.4335957 154.673828,61.9096652 154.644531,62.4711914 C154.615234,63.0327177 154.59082,63.5283182 154.571289,63.9580078 L154.673828,63.9580078 C154.878907,63.7041003 155.179197,63.3281275 155.574707,62.8300781 C155.970217,62.3320288 156.304686,61.9316421 156.578125,61.6289062 L161.910156,55.9453125 L164.766602,55.9453125 L158.306641,62.8007812 L165.235352,72 L162.305664,72 L156.636719,64.3974609 L154.688477,66.1845703 L154.688477,72 L152.271484,72 L152.271484,49.2070312 L154.688477,49.2070312 Z M166.978516,66.2871094 L178.448242,61.4384766 L166.978516,56.0039062 L166.978516,53.8359375 L181.070312,60.8085938 L181.070312,62.2001953 L166.978516,68.4404297 L166.978516,66.2871094 Z" id="&lt;work&gt;" fill="#F5CD79"></path>
                <rect id="screen" stroke="#FFFFFF" stroke-width="3" x="39.5" y="1.5" width="186" height="121" rx="20"></rect>
            </g>
        </g>
    </g>
</svg>