<?xml version="1.0" encoding="UTF-8"?>
<svg width="500px" height="500px" viewBox="0 0 500 500" version="1.1" xmlns="http://www.w3.org/2000/svg" xmlns:xlink="http://www.w3.org/1999/xlink">
    <!-- Generator: Sketch 43.2 (39069) - http://www.bohemiancoding.com/sketch -->
    <title>logo-white</title>
    <desc>Created with Sketch.</desc>
    <defs></defs>
    <g id="Symbols" stroke="none" stroke-width="1" fill="none" fill-rule="evenodd">
        <g id="logo-white">
            <circle id="Oval-2" stroke="#FFFFFF" stroke-width="10" cx="250" cy="250" r="66"></circle>
            <circle id="Oval-2" stroke="#FFFFFF" stroke-width="7.5" cx="250.5" cy="250.5" r="225.5"></circle>
            <path d="M450,450 L250,250 L450,250 L450,450 Z M400,50 L450,50 L450,250 L400,250 L400,50 Z M425,389.559012 L425,275 L311,275 L425,389.559012 Z" id="Combined-Shape" fill="#FFFFFF"></path>
            <path d="M50,50 L250,250 L50,250 L50,50 Z M50,250 L100,250 L100,450 L50,450 L50,250 Z M75,110.440988 L75,225 L189,225 L75,110.440988 Z" id="Combined-Shape" fill="#FFFFFF"></path>
            <g id="Group" transform="translate(109.000000, 10.000000)">
                <circle id="Oval-2" stroke="#FFFFFF" stroke-width="3" cx="41" cy="40" r="40"></circle>
                <circle id="Oval-3" fill="#FFFFFF" cx="41" cy="39" r="19"></circle>
                <circle id="Oval-3" fill="#FFFFFF" cx="9" cy="15" r="9"></circle>
            </g>
        </g>
    </g>
</svg>