<?xml version="1.0" standalone="no"?>
<!DOCTYPE svg PUBLIC "-//W3C//DTD SVG 20010904//EN"
 "http://www.w3.org/TR/2001/REC-SVG-20010904/DTD/svg10.dtd">
<svg version="1.0" xmlns="http://www.w3.org/2000/svg"
 width="1000.000000pt" height="1000.000000pt" viewBox="0 0 1000.000000 1000.000000"
 preserveAspectRatio="xMidYMid meet">
<metadata>
Created by potrace 1.14, written by Peter Selinger 2001-2017
</metadata>
<g transform="translate(0.000000,1000.000000) scale(0.100000,-0.100000)"
fill="#000000" stroke="none">
<path d="M2895 9803 c-176 -36 -300 -89 -403 -173 -61 -49 -65 -51 -98 -40
-94 31 -167 -60 -115 -143 l21 -34 -36 -79 c-52 -113 -77 -244 -70 -369 6
-106 29 -208 64 -289 12 -27 22 -52 22 -56 0 -3 -21 -22 -47 -40 -67 -48 -253
-208 -351 -301 l-82 -79 -400 400 -400 400 0 -940 0 -940 -60 -120 c-115 -230
-222 -504 -295 -758 -19 -67 -37 -133 -39 -145 -2 -12 -9 -40 -14 -62 -14 -49
-49 -226 -57 -280 -3 -22 -7 -47 -10 -55 -2 -8 -6 -37 -10 -65 -3 -27 -10 -84
-15 -125 -32 -265 -35 -743 -6 -985 2 -16 7 -59 11 -95 3 -36 10 -87 16 -115
5 -27 11 -66 13 -85 3 -19 10 -60 16 -90 6 -30 13 -67 15 -82 13 -73 87 -349
124 -463 63 -193 155 -422 238 -588 l73 -148 0 -929 0 -930 500 0 500 0 2 295
3 294 45 -40 c25 -22 61 -52 80 -67 19 -15 37 -30 40 -33 3 -3 53 -43 112 -87
353 -266 768 -491 1193 -645 299 -109 680 -200 980 -233 33 -3 62 -8 65 -9 16
-9 278 -20 495 -20 216 0 363 6 480 20 75 9 141 17 155 20 8 1 37 6 63 9 27 4
56 9 65 11 10 1 58 10 107 20 50 9 117 23 150 32 33 8 68 16 77 18 36 7 178
48 283 81 632 200 1273 580 1736 1030 42 41 81 74 88 74 6 0 182 -171 391
-380 209 -209 382 -380 385 -380 3 0 5 407 5 905 l0 904 78 158 c87 178 104
216 160 358 105 266 213 655 247 890 3 22 11 67 16 100 6 32 13 84 15 115 3
30 7 66 10 80 26 153 26 735 -1 950 -3 19 -7 58 -10 85 -4 28 -11 79 -17 115
-5 36 -12 79 -14 95 -22 141 -99 455 -153 620 -73 226 -135 375 -249 608 l-82
168 0 919 0 920 -500 0 -500 0 -2 -295 -3 -295 -35 30 c-19 17 -48 41 -63 53
-16 12 -34 27 -41 33 -28 26 -230 175 -298 220 -40 26 -75 50 -78 54 -3 3 -16
12 -30 20 -14 8 -72 43 -130 77 -259 156 -572 300 -876 401 -117 39 -386 114
-449 125 -16 3 -76 14 -132 25 -56 12 -122 24 -145 27 -24 3 -54 8 -68 10 -14
2 -50 7 -80 11 -30 3 -66 8 -80 9 -108 14 -262 20 -480 20 -220 0 -464 -10
-480 -20 -3 -1 -36 -6 -75 -10 -57 -5 -341 -52 -420 -69 -11 -2 -82 -20 -158
-40 -76 -20 -140 -36 -141 -36 -2 0 -23 33 -47 73 -51 86 -181 218 -261 265
-71 42 -178 86 -248 102 -54 12 -246 21 -285 13z m250 -28 c168 -30 312 -109
428 -235 51 -55 121 -152 134 -186 3 -8 -34 -25 -109 -49 -62 -21 -146 -50
-187 -66 l-75 -29 -48 54 c-114 128 -272 166 -433 105 -118 -44 -218 -177
-231 -307 -6 -53 4 -135 20 -173 5 -12 -24 -36 -126 -105 -73 -48 -135 -91
-138 -94 -11 -12 -70 -50 -77 -50 -10 0 -48 95 -69 170 -45 171 -18 400 66
556 19 35 26 40 48 36 70 -13 136 75 102 138 -8 15 -2 25 29 53 170 154 431
225 666 182z m2230 -319 c33 -3 80 -8 105 -11 25 -3 68 -7 95 -10 169 -18 458
-78 675 -139 610 -173 1223 -509 1713 -938 l37 -33 0 -1662 0 -1663 -815 0
-815 0 -1 43 c-7 257 -85 497 -237 727 -73 111 -252 289 -362 362 -158 104
-305 167 -490 209 -77 18 -128 22 -265 23 -99 1 -197 -4 -235 -12 -36 -6 -77
-14 -91 -17 -60 -11 -218 -69 -298 -109 -126 -64 -218 -128 -333 -233 l-26
-25 -1095 1095 -1096 1096 78 73 c119 111 204 185 304 264 l92 72 41 -57 c109
-150 292 -264 489 -305 69 -15 243 -16 310 -1 208 43 393 164 508 331 61 88
113 208 132 304 22 111 9 326 -27 413 -6 17 -7 32 -2 37 9 8 248 73 309 83 17
3 82 14 145 26 138 25 157 28 235 37 33 3 67 8 77 10 9 1 65 6 125 9 59 4 110
9 112 10 5 6 538 -2 606 -9z m-1604 -281 c17 -81 22 -204 10 -284 -77 -525
-625 -825 -1111 -608 -109 48 -248 164 -317 263 -20 28 -21 31 -5 45 49 41
260 185 308 210 19 10 27 6 64 -34 151 -164 410 -166 556 -4 71 79 97 144 98
247 1 47 -3 99 -7 116 l-8 32 73 26 c40 15 125 44 188 65 l115 39 14 -37 c7
-20 17 -54 22 -76z m-1888 -1769 c205 -206 706 -710 1114 -1119 616 -618 741
-748 736 -766 l-5 -21 -1114 0 -1114 0 0 1140 c0 627 3 1140 6 1140 3 0 173
-169 377 -374z m7227 -611 c87 -198 173 -437 214 -598 8 -31 17 -61 20 -65 3
-5 7 -19 10 -33 2 -13 16 -76 30 -139 13 -63 32 -158 41 -210 9 -52 18 -106
20 -120 3 -14 8 -56 11 -95 3 -38 8 -73 10 -76 17 -30 25 -632 11 -824 -42
-544 -202 -1127 -439 -1605 l-37 -75 0 2035 0 2035 25 -50 c15 -27 52 -108 84
-180z m-8111 -1807 l-1 -1993 -40 85 c-156 331 -277 695 -342 1035 -8 44 -18
91 -20 104 -5 22 -16 98 -32 226 -3 28 -8 58 -10 68 -26 137 -25 736 1 952 2
17 6 51 9 77 15 122 29 209 72 423 2 11 13 56 24 100 12 44 25 96 29 115 28
117 155 473 218 610 19 41 46 101 60 133 15 31 28 57 30 57 2 0 3 -897 2
-1992z m4266 1254 c387 -86 719 -350 883 -702 43 -93 86 -219 97 -290 4 -25 9
-54 11 -65 2 -11 7 -57 10 -102 l7 -83 -637 0 -636 0 449 -449 449 -449 -42
-39 c-157 -145 -404 -271 -603 -308 -15 -2 -39 -7 -53 -11 -56 -13 -307 -12
-390 1 -196 31 -363 96 -512 199 -97 66 -105 72 -203 171 -218 220 -338 487
-361 803 l-6 82 631 0 c347 0 631 2 631 5 0 3 -198 203 -441 446 -283 283
-439 445 -435 455 9 22 170 145 259 197 68 39 214 104 252 111 6 1 19 5 30 9
11 3 31 8 45 11 14 3 36 7 50 10 14 3 45 9 70 12 25 3 47 8 49 10 12 12 317
-7 396 -24z m-1634 -1294 c1 -29 3 -62 4 -73 2 -11 6 -44 9 -72 15 -124 77
-317 139 -433 99 -184 269 -378 432 -492 153 -107 389 -207 531 -224 23 -2 53
-7 65 -11 50 -12 316 -10 398 3 239 38 516 165 671 305 19 18 47 43 62 57 l26
24 1105 -1105 1105 -1105 -82 -79 c-45 -43 -123 -111 -172 -152 -49 -41 -93
-80 -99 -86 -11 -12 -183 -140 -266 -198 -232 -163 -549 -337 -814 -447 -55
-23 -109 -45 -120 -50 -90 -39 -448 -152 -522 -165 -18 -3 -45 -10 -60 -16
-15 -6 -29 -10 -31 -9 -1 1 -15 -1 -30 -4 -66 -15 -232 -46 -272 -51 -19 -3
-44 -7 -55 -9 -18 -4 -71 -10 -173 -21 -237 -27 -756 -27 -963 0 -38 5 -152
21 -214 30 -95 14 -342 67 -446 95 -641 173 -1213 470 -1724 897 l-130 108 -3
1668 -2 1667 815 0 815 0 1 -52z m4869 -1594 l0 -1146 -357 360 c-197 199
-701 705 -1120 1125 -632 634 -761 768 -756 786 l5 21 1114 0 1114 0 0 -1146z"/>
</g>
</svg>
