<svg xmlns="http://www.w3.org/2000/svg" version="1" viewBox="0 0 1240 222">
  <path fill="#FFF" fill-rule="evenodd" d="M48 1H0v216h48v-61l66 66 34-34-55-55h62V85H48V1m150 216h48V1h-48zm105-109l26 26-55 54 34 34 55-54 54 54 34-34L337 74l-34 34m449 0l26 26-55 54 34 34 55-54 54 54 34-34L786 74l-34 34m262 6v1h-13v12l-26 27-26-26V74h-48v74l40 40 34 34 26-26v21h48V115h-34l-1-1M647 82l-39 39V82h-49l-39 39V82h-48v135h48v-28l40-40v68h48v-28l39-40v68h49V82h-49m592 3h-106V1h-48v216h48v-61l66 66 34-34-55-55h61V85"/>
</svg>
